<?xml version="1.0" encoding="utf-8"?>
<!-- Generator: Adobe Illustrator 23.0.4, SVG Export Plug-In . SVG Version: 6.00 Build 0)  -->
<svg version="1.1" id="Layer_1" xmlns="http://www.w3.org/2000/svg" xmlns:xlink="http://www.w3.org/1999/xlink" x="0px" y="0px"
	 viewBox="0 0 216 216" style="enable-background:new 0 0 216 216;" xml:space="preserve">
<style type="text/css">
	.st0{opacity:0.4;}
	.st1{fill:#FFFFFF;}
</style>
<g class="st0">
	<path class="st1" d="M108.2,89.9c26.3,0,36.9,15.5,36.9,23.4c0,2.2-1.7,3.9-3.9,3.9h-66c-2.2,0-3.9-1.7-3.9-3.9
		C71.3,105.5,81.9,89.9,108.2,89.9z"/>
	<path class="st1" d="M76.9,55.8L53.6,42.4c-2.8-1.6-6.4-0.7-8,2.1c-1.6,2.8-0.7,6.4,2.1,8l4.8,2.8c-2.3,2.4-3.8,5.7-3.8,9.4
		c0,7.5,6.1,13.6,13.6,13.6c6.9,0,12.5-5.1,13.4-11.7c1.3-0.4,2.5-1.3,3.3-2.6C80.7,61,79.7,57.5,76.9,55.8z"/>
	<path class="st1" d="M170.9,44.5c-1.6-2.8-5.2-3.8-8-2.1l-23.3,13.5c-2.8,1.6-3.8,5.2-2.1,8c0.8,1.3,2,2.2,3.3,2.6
		c0.9,6.6,6.6,11.7,13.4,11.7c7.5,0,13.6-6.1,13.6-13.6c0-3.6-1.4-6.9-3.8-9.4l4.8-2.8C171.5,50.9,172.5,47.3,170.9,44.5z"/>
</g>
</svg>
