<?xml version="1.0" encoding="utf-8"?>
<!-- Generator: Adobe Illustrator 23.0.4, SVG Export Plug-In . SVG Version: 6.00 Build 0)  -->
<svg version="1.1" id="Layer_1" xmlns="http://www.w3.org/2000/svg" xmlns:xlink="http://www.w3.org/1999/xlink" x="0px" y="0px"
	 viewBox="0 0 216 216" style="enable-background:new 0 0 216 216;" xml:space="preserve">
<style type="text/css">
	.st0{opacity:0.4;}
	.st1{fill:#FFFFFF;}
</style>
<g class="st0">
	<path class="st1" d="M160.9,52.4c-4.9,0-8.9,4-8.9,8.9c0,1.5,0.4,3,1.1,4.2l-24.8,9.8l-16.5-23.6c3.1-1.4,5.3-4.5,5.3-8.1
		c0-4.9-4-8.9-8.9-8.9c-4.9,0-8.9,4-8.9,8.9c0,3.6,2.1,6.7,5.2,8.1L89,74.8l-23.8-9.3c0.7-1.2,1-2.7,1-4.2c0-4.9-4-8.9-8.9-8.9
		c-4.9,0-8.9,4-8.9,8.9c0,4.9,4,8.9,8.9,8.9c1.6,0,3.1-0.4,4.4-1.2l13,27.6h68L156.5,69c1.3,0.8,2.8,1.2,4.5,1.2
		c4.9,0,8.9-4,8.9-8.9C169.8,56.4,165.8,52.4,160.9,52.4z"/>
	<rect x="73.9" y="105.8" class="st1" width="68.5" height="11.3"/>
</g>
</svg>
