<svg id="Layer_1" data-name="Layer 1" xmlns="http://www.w3.org/2000/svg" viewBox="0 0 216 216"><defs><style>.cls-1{fill:#939598;}.cls-2{fill:#fff;}.cls-3,.cls-6{fill:none;}.cls-3,.cls-4,.cls-6{stroke:#231f20;stroke-linecap:round;stroke-linejoin:round;}.cls-3{stroke-width:11.77px;}.cls-4,.cls-5{fill:#231f20;}.cls-4{stroke-width:7.28px;}.cls-6{stroke-width:5.52px;}</style></defs><title>it</title><rect class="cls-1" width="216" height="216"/><path class="cls-2" d="M84.87,50.4C57.5,69.56,43.81,98.29,43.81,98.29L60.92,88,37.66,118.82l20.52-10.26S37,136.61,37.66,139.34,51.34,128.4,51.34,128.4l-13.7,38.31,17.12-16.42L34.24,193l15-11.2L28.08,224.87,46.55,203,28.08,256.34l13.68-16.42L28.08,285.76l17.1-13L33,308.35l-4.92,14.36-8.9,52H189.89s-4.11-48.58-6.16-54.74,9.58,5.47,9.58,5.47L181,283l12.32,11.64L175.52,249.5l13.68,9.58-17.1-41.74,16.42,10.95-22.58-46.53,21.21,17.11-23.26-43.79,14.37,13.68-22.58-51.31,13,15-18.47-39,15,14.37s-6.84-28.73-15.74-39S84.87,50.4,84.87,50.4Z"/><line class="cls-3" x1="54.66" y1="62.45" x2="159.12" y2="62.45"/><path class="cls-4" d="M84.56,20.29H128a14.79,14.79,0,0,1,14.79,14.79V62.13a.42.42,0,0,1-.42.42H70.18a.42.42,0,0,1-.42-.42V35.08A14.79,14.79,0,0,1,84.56,20.29Z"/><circle class="cls-5" cx="87.28" cy="94.51" r="14.19"/><circle class="cls-5" cx="125.11" cy="94.51" r="14.19"/><line class="cls-6" x1="60.11" y1="91.79" x2="152.39" y2="91.79"/></svg>