<?xml version="1.0" encoding="utf-8"?>
<!-- Generator: Adobe Illustrator 23.0.1, SVG Export Plug-In . SVG Version: 6.00 Build 0)  -->
<svg version="1.1" id="Layer_1" xmlns="http://www.w3.org/2000/svg" xmlns:xlink="http://www.w3.org/1999/xlink" x="0px" y="0px"
	 viewBox="0 0 216 216" style="enable-background:new 0 0 216 216;" xml:space="preserve">
<style type="text/css">
	.st0{fill:#7CFC00;}
	.st1{fill:none;stroke:#000000;stroke-width:6.7602;stroke-linecap:round;stroke-linejoin:round;stroke-miterlimit:10;}
	.st2{fill:#FFFFFF;}
</style>
<rect x="58.57" y="34.52" class="st0" width="100.32" height="44.82"/>
<circle class="st0" cx="108.73" cy="79.34" r="50.16"/>
<g>
	<line class="st1" x1="55.86" y1="61.69" x2="160.37" y2="61.69"/>
	<g>
		<path class="st0" d="M86.71,79.03c-7.72,0-14.01-6.28-14.01-14.01c0-7.72,6.28-14.01,14.01-14.01s14.01,6.28,14.01,14.01
			C100.72,72.74,94.43,79.03,86.71,79.03z"/>
		<path d="M86.71,54.39c5.86,0,10.63,4.77,10.63,10.63s-4.77,10.63-10.63,10.63s-10.63-4.77-10.63-10.63S80.85,54.39,86.71,54.39
			 M86.71,47.63c-9.6,0-17.39,7.78-17.39,17.39s7.78,17.39,17.39,17.39s17.39-7.78,17.39-17.39S96.31,47.63,86.71,47.63L86.71,47.63
			z"/>
	</g>
	<g>
		<path class="st0" d="M130.62,79.03c-7.72,0-14.01-6.28-14.01-14.01c0-7.72,6.28-14.01,14.01-14.01s14.01,6.28,14.01,14.01
			C144.63,72.74,138.35,79.03,130.62,79.03z"/>
		<path d="M130.62,54.39c5.86,0,10.63,4.77,10.63,10.63s-4.77,10.63-10.63,10.63s-10.63-4.77-10.63-10.63S124.76,54.39,130.62,54.39
			 M130.62,47.63c-9.6,0-17.39,7.78-17.39,17.39s7.78,17.39,17.39,17.39c9.6,0,17.39-7.78,17.39-17.39S140.23,47.63,130.62,47.63
			L130.62,47.63z"/>
	</g>
</g>
<path class="st2" d="M70.45,89.01C74.2,106.71,89.91,120,108.73,120s34.53-13.29,38.27-30.99H70.45z"/>
<g>
	<polygon class="st0" points="58.57,34.52 72.89,34.52 65.73,11.24 	"/>
	<polygon class="st0" points="72.89,34.52 87.22,34.52 80.06,11.24 	"/>
	<polygon class="st0" points="87.22,34.52 101.54,34.52 94.38,11.24 	"/>
	<polygon class="st0" points="101.54,34.52 115.87,34.52 108.71,11.24 	"/>
	<polygon class="st0" points="115.87,34.52 130.19,34.52 123.03,11.24 	"/>
	<polygon class="st0" points="130.19,34.52 144.52,34.52 137.36,11.24 	"/>
	<polygon class="st0" points="144.52,34.52 158.85,34.52 151.68,11.24 	"/>
</g>
<path class="st0" d="M161.22,216v-62.55c0-9.63-7.88-17.52-17.52-17.52H73.75c-9.63,0-17.52,7.88-17.52,17.52V216H161.22z"/>
</svg>
