<?xml version="1.0" encoding="utf-8"?>
<!-- Generator: Adobe Illustrator 23.0.1, SVG Export Plug-In . SVG Version: 6.00 Build 0)  -->
<svg version="1.1" id="Layer_1" xmlns="http://www.w3.org/2000/svg" xmlns:xlink="http://www.w3.org/1999/xlink" x="0px" y="0px"
	 viewBox="0 0 216 216" style="enable-background:new 0 0 216 216;" xml:space="preserve">
<style type="text/css">
	.st0{fill:#FFA500;}
	.st1{fill:none;stroke:#000000;stroke-width:7.3257;stroke-linecap:round;stroke-linejoin:round;stroke-miterlimit:10;}
</style>
<g>
	<rect x="52.2" y="40" class="st0" width="108.7" height="48.6"/>
	
		<ellipse transform="matrix(0.3463 -0.9381 0.9381 0.3463 -13.4422 157.8174)" class="st0" cx="106.5" cy="88.6" rx="54.4" ry="54.4"/>
	<g>
		<line class="st1" x1="49.2" y1="69.4" x2="162.5" y2="69.4"/>
		<g>
			<path class="st0" d="M82.7,88.2c-8.4,0-15.2-6.8-15.2-15.2c0-8.4,6.8-15.2,15.2-15.2c8.4,0,15.2,6.8,15.2,15.2
				C97.8,81.4,91,88.2,82.7,88.2z"/>
			<path d="M82.7,61.5c6.4,0,11.5,5.2,11.5,11.5c0,6.4-5.2,11.5-11.5,11.5c-6.4,0-11.5-5.2-11.5-11.5S76.3,61.5,82.7,61.5
				 M82.7,54.2c-10.4,0-18.8,8.4-18.8,18.8s8.4,18.8,18.8,18.8s18.8-8.4,18.8-18.8S93.1,54.2,82.7,54.2L82.7,54.2z"/>
		</g>
		<g>
			<path class="st0" d="M130.2,88.2c-8.4,0-15.2-6.8-15.2-15.2c0-8.4,6.8-15.2,15.2-15.2c8.4,0,15.2,6.8,15.2,15.2
				C145.4,81.4,138.6,88.2,130.2,88.2z"/>
			<path d="M130.2,61.5c6.4,0,11.5,5.2,11.5,11.5s-5.2,11.5-11.5,11.5c-6.4,0-11.5-5.2-11.5-11.5C118.7,66.7,123.9,61.5,130.2,61.5
				 M130.2,54.2c-10.4,0-18.8,8.4-18.8,18.8s8.4,18.8,18.8,18.8c10.4,0,18.8-8.4,18.8-18.8S140.6,54.2,130.2,54.2L130.2,54.2z"/>
		</g>
	</g>
	<path d="M65,99c4.1,19.2,21.1,33.6,41.5,33.6c20.4,0,37.4-14.4,41.5-33.6L65,99z"/>
	<g>
		<polygon class="st0" points="52.2,40 67.7,40 59.9,14.8 		"/>
		<polygon class="st0" points="67.7,40 83.2,40 75.4,14.8 		"/>
		<polygon class="st0" points="83.2,40 98.7,40 91,14.8 		"/>
		<polygon class="st0" points="98.7,40 114.2,40 106.5,14.8 		"/>
		<polygon class="st0" points="114.2,40 129.8,40 122,14.8 		"/>
		<polygon class="st0" points="129.8,40 145.3,40 137.5,14.8 		"/>
		<polygon class="st0" points="145.3,40 160.8,40 153.1,14.7 		"/>
	</g>
</g>
</svg>
